# xmcd
#
# Track frame offsets: 
#        300
#        23188
#        47037
#        133275
#        159054
#
# Disc length: 2479 seconds
#
# Revision: 0
# Processed by: cddbd v1.4PL0 Copyright (c) Steve Scherf et al.
# Submitted via: ExactAudioCopy v0.90a11
#
DISCID=3a09ab05
DTITLE=Cowboy Junkies - Cowboy Junkies Live Nov 07, 2001 - Disc 2
DYEAR=1900
DGENRE=
TTITLE0=Escape Is So Simple
TTITLE1=Good Friday
TTITLE2=Blue Guitar
TTITLE3=Misguided Angel
TTITLE4=Blue Moon Revisited
EXTD=
EXTT0=
EXTT1=
EXTT2=
EXTT3=
EXTT4=
PLAYORDER=
